<svg width="15" height="14" viewBox="0 0 22 21" fill="none" xmlns="http://www.w3.org/2000/svg">
    <g clip-path="url(#clip0)">
        <path d="M18.1006 3.07537C16.1058 1.0922 13.4534 0 10.6323 0C7.81106 0 5.15885 1.0922 3.16402 3.07537C1.16918 5.05854 0.0705566 7.69524 0.0705566 10.5C0.0705566 13.3046 1.16918 15.9415 3.16402 17.9246C5.15885 19.9078 7.81106 21 10.6323 21C13.4534 21 16.1058 19.9078 18.1006 17.9246C20.0955 15.9415 21.1941 13.3046 21.1941 10.5C21.1941 7.69524 20.0955 5.05854 18.1006 3.07537ZM5.36546 18.1448C5.8072 15.6162 8.01122 13.7511 10.6323 13.7511C13.2536 13.7511 15.4574 15.6162 15.8992 18.1448C14.3996 19.169 12.5853 19.7695 10.6323 19.7695C8.67939 19.7695 6.86505 19.169 5.36546 18.1448ZM7.27407 9.18205C7.27407 7.341 8.7806 5.84344 10.6323 5.84344C12.484 5.84344 13.9906 7.34116 13.9906 9.18205C13.9906 11.0229 12.484 12.5207 10.6323 12.5207C8.7806 12.5207 7.27407 11.0229 7.27407 9.18205ZM16.9712 17.2913C16.6381 16.1142 15.9765 15.0462 15.0492 14.2119C14.4803 13.7 13.8328 13.2961 13.1366 13.0114C14.3949 12.1954 15.2284 10.7837 15.2284 9.18205C15.2284 6.66264 13.1666 4.61298 10.6323 4.61298C8.09808 4.61298 6.03637 6.66264 6.03637 9.18205C6.03637 10.7837 6.86989 12.1954 8.12806 13.0114C7.43201 13.2961 6.78431 13.6999 6.21542 14.2118C5.28826 15.046 4.62654 16.114 4.29343 17.2911C2.45862 15.5972 1.30826 13.1798 1.30826 10.5C1.30826 5.38875 5.491 1.23047 10.6323 1.23047C15.7736 1.23047 19.9564 5.38875 19.9564 10.5C19.9564 13.18 18.806 15.5973 16.9712 17.2913Z"
              fill="#727272"/>
    </g>
    <defs>
        <clipPath id="clip0">
            <rect width="21.1235" height="21" fill="white" transform="translate(0.0705566)"/>
        </clipPath>
    </defs>
</svg>
