<svg width="111" height="57" viewBox="0 0 111 57" fill="none" xmlns="http://www.w3.org/2000/svg">
    <path d="M19.2666 48.8711C18.277 50.3555 17.18 51.0977 15.9756 51.0977C14.8884 51.0977 14.156 50.5182 13.7784 49.3594C13.6481 48.9622 13.583 48.474 13.583 47.8945C13.583 47.3151 13.6644 46.7357 13.8272 46.1562C13.9964 45.5703 14.2243 45.0169 14.5108 44.4961C14.7972 43.9753 15.1325 43.4967 15.5166 43.0605C15.9073 42.6178 16.3239 42.237 16.7666 41.918C17.6911 41.2344 18.6091 40.8926 19.5205 40.8926C20.432 40.8926 21.083 41.319 21.4737 42.1719C21.5518 42.0872 21.6234 42.0026 21.6885 41.918C21.7536 41.8268 21.8252 41.7422 21.9034 41.6641C22.0726 41.4948 22.2191 41.4102 22.3428 41.4102C22.473 41.4102 22.6065 41.4329 22.7432 41.4785C22.8864 41.5241 23.0231 41.5859 23.1534 41.6641C23.4724 41.8529 23.5928 42.0286 23.5147 42.1914C23.1566 42.9661 22.8571 43.7279 22.6162 44.4766L21.1709 49.0859C20.0316 52.582 18.5863 54.8411 16.835 55.8633C16.3728 56.1367 15.9724 56.293 15.6338 56.332C15.2953 56.3776 15.0511 56.3809 14.9014 56.3418C14.7517 56.3027 14.6182 56.2474 14.501 56.1758C14.2471 56.013 14.1201 55.8665 14.1201 55.7363C14.1201 55.5085 14.2699 55.3685 14.5694 55.3164C14.8754 55.2643 15.1944 55.1406 15.5264 54.9453C15.8584 54.7565 16.1742 54.5254 16.4737 54.252C17.7041 53.1126 18.6351 51.319 19.2666 48.8711ZM16.3369 45.4824C16.1677 45.9512 16.0342 46.4329 15.9366 46.9277C15.8389 47.416 15.7901 47.8164 15.7901 48.1289C15.7901 48.4414 15.7998 48.679 15.8194 48.8418C15.8389 49.0046 15.878 49.1478 15.9366 49.2715C16.0668 49.5449 16.2588 49.6816 16.5127 49.6816C16.7666 49.6816 17.0173 49.5938 17.2647 49.418C17.5121 49.2357 17.7725 48.9883 18.0459 48.6758C18.3194 48.3633 18.5928 47.9954 18.8662 47.5723C19.1397 47.1491 19.4001 46.6934 19.6475 46.2051C20.1944 45.1243 20.5785 44.0924 20.7998 43.1094C20.7673 42.9271 20.6566 42.7415 20.4678 42.5527C20.0967 42.1947 19.7614 42.0156 19.4619 42.0156C19.1625 42.0156 18.863 42.11 18.5635 42.2988C18.264 42.4811 17.9776 42.7318 17.7041 43.0508C17.4372 43.3633 17.1866 43.7311 16.9522 44.1543C16.7178 44.571 16.5127 45.0137 16.3369 45.4824ZM24.1299 50.7656C23.9997 50.668 23.8955 50.5605 23.8174 50.4434C23.7393 50.3197 23.697 50.2155 23.6905 50.1309C23.6839 50.0397 23.7002 49.9323 23.7393 49.8086C23.7849 49.6784 23.8435 49.5221 23.9151 49.3398C25.2432 46.0716 25.9073 43.8776 25.9073 42.7578C25.8877 42.4453 25.7803 42.224 25.585 42.0938L25.3897 41.957C25.3311 41.9115 25.2985 41.8333 25.292 41.7227C25.292 41.6055 25.3343 41.4948 25.419 41.3906C25.5036 41.2865 25.6143 41.1953 25.751 41.1172C26.031 40.9674 26.3174 40.8926 26.6104 40.8926C26.9099 40.8926 27.141 40.9251 27.3037 40.9902C27.473 41.0553 27.6162 41.1432 27.7334 41.2539C27.9808 41.4883 28.1045 41.7357 28.1045 41.9961C28.111 42.2565 28.0817 42.5202 28.0166 42.7871C27.958 43.054 27.8864 43.3177 27.8018 43.5781C27.7172 43.832 27.6325 44.0762 27.5479 44.3105C27.4632 44.5384 27.4079 44.7077 27.3819 44.8184C27.3298 45.0462 27.3103 45.1895 27.3233 45.248C27.4795 45.1113 27.5739 44.9779 27.6065 44.8477L27.9873 44.125C28.8337 42.6016 29.6605 41.5924 30.4678 41.0977C30.7022 40.9609 30.9821 40.8926 31.3076 40.8926C31.6397 40.8926 31.9066 41.0098 32.1084 41.2441C32.3103 41.472 32.4144 41.7259 32.4209 42.0059C32.4339 42.2858 32.4144 42.5202 32.3623 42.709C32.3168 42.8913 32.2451 43.0638 32.1475 43.2266C31.9326 43.5911 31.6722 43.7734 31.3662 43.7734C31.2816 43.7734 31.2035 43.7441 31.1319 43.6855L30.917 43.5C30.7022 43.3112 30.4938 43.2168 30.292 43.2168C30.0967 43.2168 29.8558 43.347 29.5694 43.6074C29.2894 43.8678 28.9964 44.2031 28.6905 44.6133C27.6618 45.974 26.822 47.4974 26.1709 49.1836L25.7412 50.3164C25.6306 50.5964 25.5329 50.7982 25.4483 50.9219C25.3636 51.0391 25.2367 51.0977 25.0674 51.0977C24.9047 51.0977 24.7386 51.0651 24.5694 51C24.4066 50.9414 24.2601 50.8633 24.1299 50.7656ZM39.794 48.4023C39.794 49.0013 40.0056 49.3008 40.4287 49.3008C40.7217 49.3008 40.9626 49.2552 41.1514 49.1641C41.3467 49.0729 41.4769 49.0273 41.542 49.0273C41.6787 49.0273 41.7471 49.099 41.7471 49.2422C41.7471 49.8021 41.4541 50.2839 40.8682 50.6875C40.2497 51.1107 39.6182 51.2148 38.9737 51C38.5505 50.8503 38.238 50.528 38.0362 50.0332C37.9385 49.7793 37.8897 49.5482 37.8897 49.3398C37.8897 49.0013 37.9222 48.6432 37.9873 48.2656C37.3819 49.5026 36.6299 50.3555 35.7315 50.8242C35.3734 51.0065 34.9925 51.0977 34.5889 51.0977C34.1853 51.0977 33.8337 51.0163 33.5342 50.8535C33.2412 50.6842 32.9906 50.4531 32.7823 50.1602C32.3591 49.5482 32.167 48.7799 32.2061 47.8555C32.2451 46.6966 32.5869 45.5605 33.2315 44.4473C33.8239 43.4056 34.5726 42.556 35.4776 41.8984C36.3825 41.2279 37.2289 40.8926 38.0166 40.8926C38.8044 40.8926 39.4392 41.2539 39.9209 41.9766C40.3701 41.2539 40.7673 40.8926 41.1123 40.8926C41.4834 40.8926 41.7634 40.9609 41.9522 41.0977C42.3103 41.3581 42.4372 41.5859 42.333 41.7812C40.6989 45.1276 39.8591 47.2109 39.8135 48.0312C39.8005 48.1484 39.794 48.2721 39.794 48.4023ZM34.3741 48.4414C34.3741 49.2227 34.6247 49.6133 35.126 49.6133C35.5101 49.6133 35.9821 49.2878 36.542 48.6367C37.3623 47.6797 38.0882 46.3906 38.7198 44.7695C38.9216 44.2617 39.0909 43.7539 39.2276 43.2461C39.2015 42.8034 39.016 42.4779 38.6709 42.2695C38.5537 42.1979 38.378 42.1621 38.1436 42.1621C37.9157 42.1621 37.6455 42.2467 37.333 42.416C37.027 42.5853 36.7276 42.8164 36.4346 43.1094C36.1481 43.4023 35.878 43.7507 35.6241 44.1543C35.3767 44.5514 35.1586 44.9844 34.9698 45.4531C34.5726 46.4557 34.3741 47.4518 34.3741 48.4414ZM42.626 49.2812C42.626 49.0794 42.6683 48.8939 42.753 48.7246C42.8441 48.5488 42.9548 48.4023 43.085 48.2852C43.3584 48.0312 43.6449 47.9043 43.9444 47.9043C44.2048 47.9043 44.335 48.0378 44.335 48.3047C44.335 48.9818 44.5596 49.4538 45.0088 49.7207C45.1716 49.8184 45.3409 49.8672 45.5166 49.8672C45.6924 49.8672 45.8422 49.8477 45.9659 49.8086C46.0895 49.7695 46.2035 49.7077 46.3076 49.623C46.542 49.4342 46.6592 49.2096 46.6592 48.9492C46.6592 48.6888 46.6006 48.4512 46.4834 48.2363C46.3662 48.015 46.2198 47.7839 46.044 47.543L45.4873 46.7617C44.7061 45.7201 44.3155 44.7598 44.3155 43.8809C44.3155 43.1517 44.6247 42.4909 45.2432 41.8984C45.9463 41.2279 46.848 40.8926 47.9483 40.8926C48.9118 40.8926 49.6638 41.1302 50.2041 41.6055C50.6468 41.9896 50.8682 42.429 50.8682 42.9238C50.8682 43.4382 50.6729 43.8483 50.2823 44.1543C49.9307 44.4277 49.5791 44.5286 49.2276 44.457C49.0713 44.4245 48.9509 44.3464 48.8662 44.2227C48.7816 44.0924 48.7653 43.946 48.8174 43.7832C48.8695 43.6204 48.8955 43.4512 48.8955 43.2754C48.8955 43.0996 48.863 42.9368 48.7979 42.7871C48.7328 42.6374 48.6449 42.5104 48.5342 42.4062C48.3063 42.1914 48.0655 42.084 47.8116 42.084C47.5642 42.084 47.3591 42.1133 47.1963 42.1719C47.0336 42.224 46.8903 42.3021 46.7666 42.4062C46.5127 42.6406 46.3858 42.9303 46.3858 43.2754C46.3858 43.6139 46.4444 43.9069 46.5616 44.1543C46.6787 44.4017 46.822 44.6491 46.9912 44.8965C47.167 45.1439 47.3558 45.3945 47.5576 45.6484C47.7595 45.9023 47.945 46.1693 48.1143 46.4492C48.5244 47.1068 48.7295 47.6862 48.7295 48.1875C48.7295 48.6823 48.6254 49.099 48.417 49.4375C48.2087 49.7695 47.9385 50.056 47.6065 50.2969C46.8968 50.8242 46.1026 51.0879 45.2237 51.0879C44.3838 51.0879 43.7198 50.8861 43.2315 50.4824C42.8278 50.1439 42.626 49.7435 42.626 49.2812ZM51.1026 49.2812C51.1026 49.0794 51.1449 48.8939 51.2295 48.7246C51.3207 48.5488 51.4313 48.4023 51.5616 48.2852C51.835 48.0312 52.1214 47.9043 52.4209 47.9043C52.6813 47.9043 52.8116 48.0378 52.8116 48.3047C52.8116 48.9818 53.0362 49.4538 53.4854 49.7207C53.6481 49.8184 53.8174 49.8672 53.9932 49.8672C54.169 49.8672 54.3187 49.8477 54.4424 49.8086C54.5661 49.7695 54.68 49.7077 54.7842 49.623C55.0186 49.4342 55.1358 49.2096 55.1358 48.9492C55.1358 48.6888 55.0772 48.4512 54.96 48.2363C54.8428 48.015 54.6963 47.7839 54.5205 47.543L53.9639 46.7617C53.1826 45.7201 52.792 44.7598 52.792 43.8809C52.792 43.1517 53.1013 42.4909 53.7198 41.8984C54.4229 41.2279 55.3246 40.8926 56.4248 40.8926C57.3884 40.8926 58.1403 41.1302 58.6807 41.6055C59.1234 41.9896 59.3448 42.429 59.3448 42.9238C59.3448 43.4382 59.1494 43.8483 58.7588 44.1543C58.4073 44.4277 58.0557 44.5286 57.7041 44.457C57.5479 44.4245 57.4274 44.3464 57.3428 44.2227C57.2582 44.0924 57.2419 43.946 57.294 43.7832C57.3461 43.6204 57.3721 43.4512 57.3721 43.2754C57.3721 43.0996 57.3395 42.9368 57.2744 42.7871C57.2093 42.6374 57.1214 42.5104 57.0108 42.4062C56.7829 42.1914 56.542 42.084 56.2881 42.084C56.0407 42.084 55.8356 42.1133 55.6729 42.1719C55.5101 42.224 55.3669 42.3021 55.2432 42.4062C54.9893 42.6406 54.8623 42.9303 54.8623 43.2754C54.8623 43.6139 54.9209 43.9069 55.0381 44.1543C55.1553 44.4017 55.2985 44.6491 55.4678 44.8965C55.6436 45.1439 55.8324 45.3945 56.0342 45.6484C56.236 45.9023 56.4216 46.1693 56.5909 46.4492C57.001 47.1068 57.2061 47.6862 57.2061 48.1875C57.2061 48.6823 57.1019 49.099 56.8936 49.4375C56.6853 49.7695 56.4151 50.056 56.083 50.2969C55.3734 50.8242 54.5791 51.0879 53.7002 51.0879C52.8604 51.0879 52.1963 50.8861 51.708 50.4824C51.3044 50.1439 51.1026 49.7435 51.1026 49.2812ZM60.5264 50.6094C60.3636 50.4401 60.2302 50.2253 60.126 49.9648C60.0284 49.6979 59.9795 49.3919 59.9795 49.0469C59.9795 48.6953 60.0576 48.2266 60.2139 47.6406C60.3767 47.0547 60.5817 46.3874 60.8291 45.6387L61.6494 43.207C62.8148 39.8216 63.4886 37.2044 63.6709 35.3555C63.7295 34.8086 63.9964 34.5352 64.4717 34.5352C64.7712 34.5352 65.0186 34.6068 65.2139 34.75C65.5915 35.0365 65.7738 35.3555 65.7608 35.707C65.7478 36.0586 65.6859 36.4883 65.5752 36.9961C65.4645 37.4974 65.3213 38.0475 65.1455 38.6465C64.9698 39.2389 64.7679 39.8672 64.5401 40.5312L63.1924 44.4961C62.4177 46.7487 62.0303 48.2038 62.0303 48.8613C62.0303 49.2129 62.1735 49.3887 62.46 49.3887C62.7334 49.3887 62.9808 49.3301 63.2022 49.2129C63.43 49.0957 63.5765 49.0371 63.6416 49.0371C63.7784 49.0371 63.8467 49.1055 63.8467 49.2422C63.8467 49.8216 63.5505 50.3066 62.958 50.6973C62.5609 50.9642 62.1963 51.0977 61.8643 51.0977C61.5388 51.0977 61.2751 51.0586 61.0733 50.9805C60.8714 50.9023 60.6892 50.7786 60.5264 50.6094ZM73.1729 48.4023C73.1729 49.0013 73.3845 49.3008 73.8076 49.3008C74.1006 49.3008 74.3415 49.2552 74.5303 49.1641C74.7256 49.0729 74.8558 49.0273 74.9209 49.0273C75.0576 49.0273 75.126 49.099 75.126 49.2422C75.126 49.8021 74.833 50.2839 74.2471 50.6875C73.6286 51.1107 72.9971 51.2148 72.3526 51C71.9294 50.8503 71.6169 50.528 71.4151 50.0332C71.3174 49.7793 71.2686 49.5482 71.2686 49.3398C71.2686 49.0013 71.3011 48.6432 71.3662 48.2656C70.7608 49.5026 70.0088 50.3555 69.1104 50.8242C68.7523 51.0065 68.3714 51.0977 67.9678 51.0977C67.5642 51.0977 67.2126 51.0163 66.9131 50.8535C66.6201 50.6842 66.3695 50.4531 66.1612 50.1602C65.738 49.5482 65.5459 48.7799 65.585 47.8555C65.6241 46.6966 65.9659 45.5605 66.6104 44.4473C67.2028 43.4056 67.9515 42.556 68.8565 41.8984C69.7614 41.2279 70.6078 40.8926 71.3955 40.8926C72.1833 40.8926 72.8181 41.2539 73.2998 41.9766C73.7491 41.2539 74.1462 40.8926 74.4912 40.8926C74.8623 40.8926 75.1423 40.9609 75.3311 41.0977C75.6892 41.3581 75.8161 41.5859 75.7119 41.7812C74.0778 45.1276 73.238 47.2109 73.1924 48.0312C73.1794 48.1484 73.1729 48.2721 73.1729 48.4023ZM67.753 48.4414C67.753 49.2227 68.0036 49.6133 68.5049 49.6133C68.889 49.6133 69.361 49.2878 69.9209 48.6367C70.7412 47.6797 71.4672 46.3906 72.0987 44.7695C72.3005 44.2617 72.4698 43.7539 72.6065 43.2461C72.5804 42.8034 72.3949 42.4779 72.0498 42.2695C71.9326 42.1979 71.7569 42.1621 71.5225 42.1621C71.2946 42.1621 71.0244 42.2467 70.7119 42.416C70.406 42.5853 70.1065 42.8164 69.8135 43.1094C69.527 43.4023 69.2569 43.7507 69.003 44.1543C68.7556 44.5514 68.5375 44.9844 68.3487 45.4531C67.9515 46.4557 67.753 47.4518 67.753 48.4414ZM83.5147 42.7383C83.3129 42.7383 83.0264 42.9336 82.6553 43.3242C82.2842 43.7083 81.9619 44.0599 81.6885 44.3789L80.8584 45.375L79.2569 47.416C78.8793 48.1322 78.583 48.7279 78.3682 49.2031L77.8409 50.3359C77.7041 50.6159 77.5837 50.8145 77.4795 50.9316C77.3819 51.0423 77.2451 51.0977 77.0694 51.0977C76.9001 51.0977 76.7341 51.0651 76.5713 51C76.4151 50.9414 76.2784 50.8633 76.1612 50.7656C75.9138 50.5573 75.7901 50.3294 75.7901 50.082C75.7901 49.9844 75.8617 49.7923 76.0049 49.5059L76.376 48.7148C76.4932 48.4805 76.6299 48.181 76.7862 47.8164L77.333 46.4785C78.1013 44.5579 78.4854 43.3177 78.4854 42.7578C78.4854 42.4583 78.3877 42.237 78.1924 42.0938L77.9971 41.957C77.932 41.9115 77.8994 41.8333 77.8994 41.7227C77.8994 41.6055 77.9418 41.4948 78.0264 41.3906C78.1175 41.2865 78.2347 41.1953 78.378 41.1172C78.6709 40.9674 78.9639 40.8926 79.2569 40.8926C79.5563 40.8926 79.7875 40.9251 79.9502 40.9902C80.113 41.0553 80.2497 41.1432 80.3604 41.2539C80.6013 41.4818 80.7217 41.7194 80.7217 41.9668C80.7217 42.2142 80.6892 42.4648 80.6241 42.7188C80.5655 42.9661 80.4873 43.2201 80.3897 43.4805C80.2985 43.7344 80.2009 43.985 80.0967 44.2324C79.9925 44.4798 79.8981 44.6947 79.8135 44.877L79.6182 45.2969C79.5661 45.401 79.5531 45.4336 79.5791 45.3945C80.3018 44.3919 80.777 43.7474 81.0049 43.4609L81.6885 42.6406C82.1898 42.0547 82.5837 41.6673 82.8701 41.4785C83.4496 41.0879 83.9053 40.8926 84.2373 40.8926C84.5694 40.8926 84.8493 40.9349 85.0772 41.0195C85.305 41.1042 85.5036 41.2246 85.6729 41.3809C86.031 41.7129 86.21 42.1361 86.21 42.6504C86.21 43.1647 86.0928 43.7018 85.8584 44.2617C85.6241 44.8216 85.419 45.2773 85.2432 45.6289C85.0739 45.974 84.9112 46.3255 84.7549 46.6836C84.2666 47.7708 84.0225 48.5618 84.0225 49.0566C84.0225 49.278 84.1983 49.3887 84.5498 49.3887C84.8233 49.3887 85.0707 49.3301 85.292 49.2129C85.5199 49.0957 85.6664 49.0371 85.7315 49.0371C85.8682 49.0371 85.9366 49.1055 85.9366 49.2422C85.9366 49.8216 85.6403 50.3066 85.0479 50.6973C84.6507 50.9642 84.2862 51.0977 83.9541 51.0977C83.6221 51.0977 83.3454 51.0618 83.1241 50.9902C82.9092 50.9186 82.7172 50.8047 82.5479 50.6484C82.1638 50.3034 81.9717 49.8216 81.9717 49.2031C81.9717 48.4479 82.2093 47.5039 82.6846 46.3711C83.0297 45.5964 83.2738 45.0658 83.417 44.7793L83.7491 44.0859C83.9509 43.6693 84.0518 43.3405 84.0518 43.0996C84.0518 42.8587 83.8728 42.7383 83.5147 42.7383ZM97.46 49.0273C97.5967 49.0273 97.6651 49.099 97.6651 49.2422C97.6651 49.8021 97.3754 50.2839 96.7959 50.6875C96.4118 50.9609 96.0472 51.0977 95.7022 51.0977C95.3636 51.0977 95.0935 51.0586 94.8916 50.9805C94.6898 50.9023 94.5075 50.7786 94.3448 50.6094C93.9802 50.2188 93.7979 49.6816 93.7979 48.998C93.7979 48.8613 93.8239 48.6432 93.876 48.3438C93.3487 49.1576 92.8962 49.7305 92.5186 50.0625C91.7569 50.7526 91.0114 51.0977 90.2823 51.0977C89.1299 51.0977 88.3747 50.5768 88.0166 49.5352C87.8864 49.151 87.8213 48.6693 87.8213 48.0898C87.8213 47.5104 87.9092 46.9245 88.085 46.332C88.2608 45.7396 88.4984 45.1764 88.7979 44.6426C89.1039 44.1087 89.4554 43.6139 89.8526 43.1582C90.2562 42.696 90.6794 42.2956 91.1221 41.957C92.0726 41.2474 92.932 40.8926 93.7002 40.8926C94.4685 40.8926 95.0837 41.2051 95.5459 41.8301C96.6787 37.9499 97.5316 35.6615 98.1045 34.9648C98.3454 34.6784 98.5993 34.5352 98.8662 34.5352C99.3089 34.5352 99.6442 34.6621 99.8721 34.916C99.9437 35.0007 99.9795 35.0853 99.9795 35.1699C99.9795 35.2546 99.9274 35.4108 99.8233 35.6387C99.7191 35.8665 99.5661 36.2344 99.3643 36.7422C98.7849 38.2721 98.378 39.3919 98.1436 40.1016C97.5446 41.918 97.141 43.168 96.9326 43.8516L96.3955 45.6582C95.9333 47.2663 95.7022 48.2884 95.7022 48.7246C95.7022 49.1608 95.8617 49.3789 96.1807 49.3789C96.4737 49.3789 96.708 49.3398 96.8838 49.2617L97.2549 49.0859C97.3265 49.0469 97.3949 49.0273 97.46 49.0273ZM90.751 49.6328C91.4216 49.6328 92.1898 48.9785 93.0557 47.6699C93.9606 46.3158 94.5922 44.8411 94.9502 43.2461C94.9242 42.8034 94.7386 42.4779 94.3936 42.2695C94.2764 42.1979 94.0974 42.1621 93.8565 42.1621C93.6221 42.1621 93.3454 42.25 93.0264 42.4258C92.7139 42.5951 92.4079 42.8262 92.1084 43.1191C91.8155 43.4121 91.5388 43.7572 91.2784 44.1543C91.0244 44.5449 90.8031 44.9616 90.6143 45.4043C90.2041 46.3678 89.9991 47.3151 89.9991 48.2461C89.9991 49.1706 90.2497 49.6328 90.751 49.6328Z"
          fill="#6BA74D"/>
    <g clip-path="url(#clip0)">
        <path d="M73.299 25.51C72.7995 25.0133 72.2671 24.5642 71.705 24.162C70.5075 25.537 69.1014 26.6926 67.5161 27.6024C65.0606 29.0121 62.2678 29.7647 59.4337 29.7825C60.9387 30.3858 62.5612 30.7024 64.2328 30.7024C67.6576 30.7024 70.8774 29.3765 73.2991 26.9689C73.4936 26.7755 73.603 26.5132 73.603 26.2397C73.6029 25.9663 73.4936 25.7034 73.299 25.51Z"
              fill="#6BA74D"/>
        <path d="M40.0937 24.162C39.5317 24.5642 38.9992 25.0134 38.4997 25.51C38.3051 25.7034 38.1958 25.9663 38.1958 26.2397C38.1958 26.5132 38.3051 26.7755 38.4997 26.9689C40.9214 29.3765 44.1412 30.7024 47.566 30.7024C49.2376 30.7024 50.8601 30.3858 52.3651 29.7825C49.5308 29.7647 46.7382 29.0121 44.2824 27.6022C42.6972 26.6926 41.2912 25.537 40.0937 24.162Z"
              fill="#6BA74D"/>
        <path d="M45.3197 25.8162C47.0442 26.8062 49.0491 27.47 51.1866 27.6624C47.4931 25.6301 45.497 22.8085 44.5574 21.1906C43.5241 19.4115 42.8257 17.4838 42.4784 15.4554C41.4465 15.4994 40.4193 15.6526 39.4199 15.9167C38.9635 16.025 38.6241 16.4335 38.6241 16.9203C38.6241 17.0105 38.636 17.1003 38.6596 17.1874C39.719 21.1159 42.3058 24.0865 45.3197 25.8162Z"
              fill="#6BA74D"/>
        <path d="M60.6121 27.6624C62.7495 27.47 64.7544 26.8062 66.4789 25.8162C69.4929 24.0865 72.0797 21.1159 73.1392 17.1875C73.1627 17.1004 73.1746 17.0106 73.1746 16.9204C73.1746 16.4335 72.8352 16.0251 72.3788 15.9167C71.3794 15.6526 70.3522 15.4994 69.3203 15.4555C68.973 17.4839 68.2746 19.4116 67.2413 21.1907C66.3017 22.8086 64.3079 25.6288 60.6121 27.6624Z"
              fill="#6BA74D"/>
        <path d="M51.1485 25.2277C50.1003 23.5445 48.4725 20.3134 48.4725 15.8843C48.4725 13.6399 48.8904 11.4568 49.7134 9.38546C48.5797 8.74258 47.3641 8.24263 46.0985 7.90562C45.545 7.75836 44.9765 8.08464 44.8282 8.63471C43.696 12.8338 44.4945 16.9578 46.354 20.1593C47.4829 22.1032 49.1042 23.8795 51.1485 25.2277Z"
              fill="#6BA74D"/>
        <path d="M60.6492 25.2283C62.6939 23.88 64.3155 22.1035 65.4446 20.1593C67.3041 16.9577 68.1026 12.8338 66.9704 8.63471C66.8221 8.08464 66.2536 7.75828 65.7001 7.90561C64.4343 8.24262 63.2186 8.74271 62.0847 9.38573C62.9077 11.4569 63.3256 13.64 63.3256 15.8843C63.3257 20.3172 61.6949 23.5491 60.6492 25.2283Z"
              fill="#6BA74D"/>
        <path d="M56.6328 4.79965C56.4382 4.60625 56.1738 4.49756 55.8987 4.49756C55.6236 4.49756 55.3598 4.60625 55.1652 4.79965C52.4482 7.50077 50.5471 11.4 50.5471 15.8843C50.5471 20.3706 52.4504 24.27 55.1652 26.9689C55.3598 27.1623 55.6242 27.271 55.8993 27.271C56.1744 27.271 56.4382 27.1623 56.6328 26.9689C59.3469 24.2707 61.2509 20.3717 61.2509 15.8843C61.251 11.3979 59.3484 7.49925 56.6328 4.79965Z"
              fill="#6BA74D"/>
    </g>
    <defs>
        <clipPath id="clip0">
            <rect width="35.4071" height="35.2" fill="white" transform="translate(38.1958)"/>
        </clipPath>
    </defs>
</svg>
